<svg id="Layer_1" data-name="Layer 1" xmlns="http://www.w3.org/2000/svg" viewBox="0 0 437.16 227.53"><polygon points="437.16 142.15 0 142.15 2.04 134.07 435.12 134.07 437.16 142.15"/><polygon points="135.41 0 42.74 223.12 27.72 223.12 120.38 0 135.41 0"/><polygon points="299.73 0 394.21 226.77 409.52 226.77 315.05 0 299.73 0"/><rect x="146.06" width="14.17" height="128.95"/><rect x="146.06" y="134.07" width="14.17" height="8.08"/><rect x="146.06" y="147.27" width="14.17" height="76.6"/><polygon points="234.45 128.95 218.09 128.95 148.07 7.68 160.34 0.6 234.45 128.95"/><polygon points="242.07 142.15 225.71 142.15 221.04 134.07 237.4 134.07 242.07 142.15"/><polygon points="287.11 220.16 274.84 227.25 228.66 147.27 245.02 147.27 287.11 220.16"/><rect x="274.91" width="14.16" height="128.95"/><rect x="274.91" y="134.07" width="14.16" height="8.08"/><rect x="274.91" y="147.27" width="14.16" height="80.26"/></svg>